<mxfile host="app.diagrams.net" modified="2024-01-31T20:43:36.597Z" agent="Mozilla/5.0 (Windows NT 10.0; Win64; x64) AppleWebKit/537.36 (KHTML, like Gecko) Chrome/121.0.0.0 Safari/537.36" etag="LubE4dWz77swGoroiLrE" version="23.0.2" type="device">
  <diagram name="Страница — 1" id="fSG0JG8JWyEfINQ_XwdN">
    <mxGraphModel dx="683" dy="355" grid="1" gridSize="10" guides="1" tooltips="1" connect="1" arrows="1" fold="1" page="1" pageScale="1" pageWidth="827" pageHeight="1169" math="0" shadow="0">
      <root>
        <mxCell id="0" />
        <mxCell id="1" parent="0" />
        <mxCell id="IH9IsD3jPgNmUaPM1PwI-3" style="edgeStyle=orthogonalEdgeStyle;rounded=0;orthogonalLoop=1;jettySize=auto;html=1;exitX=1;exitY=0.25;exitDx=0;exitDy=0;entryX=0;entryY=0.25;entryDx=0;entryDy=0;" edge="1" parent="1" source="IH9IsD3jPgNmUaPM1PwI-1" target="IH9IsD3jPgNmUaPM1PwI-2">
          <mxGeometry relative="1" as="geometry" />
        </mxCell>
        <mxCell id="IH9IsD3jPgNmUaPM1PwI-4" value="Entity changes" style="edgeLabel;html=1;align=center;verticalAlign=middle;resizable=0;points=[];" vertex="1" connectable="0" parent="IH9IsD3jPgNmUaPM1PwI-3">
          <mxGeometry y="-2" relative="1" as="geometry">
            <mxPoint as="offset" />
          </mxGeometry>
        </mxCell>
        <mxCell id="IH9IsD3jPgNmUaPM1PwI-1" value="UI" style="rounded=0;whiteSpace=wrap;html=1;" vertex="1" parent="1">
          <mxGeometry x="80" y="200" width="80" height="80" as="geometry" />
        </mxCell>
        <mxCell id="IH9IsD3jPgNmUaPM1PwI-5" style="edgeStyle=orthogonalEdgeStyle;rounded=0;orthogonalLoop=1;jettySize=auto;html=1;exitX=0;exitY=0.75;exitDx=0;exitDy=0;entryX=1;entryY=0.75;entryDx=0;entryDy=0;" edge="1" parent="1" source="IH9IsD3jPgNmUaPM1PwI-2" target="IH9IsD3jPgNmUaPM1PwI-1">
          <mxGeometry relative="1" as="geometry" />
        </mxCell>
        <mxCell id="IH9IsD3jPgNmUaPM1PwI-7" value="Entities" style="edgeLabel;html=1;align=center;verticalAlign=middle;resizable=0;points=[];" vertex="1" connectable="0" parent="IH9IsD3jPgNmUaPM1PwI-5">
          <mxGeometry x="-0.04" relative="1" as="geometry">
            <mxPoint as="offset" />
          </mxGeometry>
        </mxCell>
        <mxCell id="IH9IsD3jPgNmUaPM1PwI-9" style="edgeStyle=orthogonalEdgeStyle;rounded=0;orthogonalLoop=1;jettySize=auto;html=1;exitX=1;exitY=0.25;exitDx=0;exitDy=0;entryX=0;entryY=0.25;entryDx=0;entryDy=0;" edge="1" parent="1" source="IH9IsD3jPgNmUaPM1PwI-2" target="IH9IsD3jPgNmUaPM1PwI-8">
          <mxGeometry relative="1" as="geometry" />
        </mxCell>
        <mxCell id="IH9IsD3jPgNmUaPM1PwI-2" value="CRUD API" style="whiteSpace=wrap;html=1;aspect=fixed;" vertex="1" parent="1">
          <mxGeometry x="280" y="200" width="80" height="80" as="geometry" />
        </mxCell>
        <mxCell id="IH9IsD3jPgNmUaPM1PwI-10" style="edgeStyle=orthogonalEdgeStyle;rounded=0;orthogonalLoop=1;jettySize=auto;html=1;exitX=0;exitY=0.75;exitDx=0;exitDy=0;entryX=1;entryY=0.75;entryDx=0;entryDy=0;" edge="1" parent="1" source="IH9IsD3jPgNmUaPM1PwI-8" target="IH9IsD3jPgNmUaPM1PwI-2">
          <mxGeometry relative="1" as="geometry">
            <mxPoint x="370" y="260.2380952380952" as="targetPoint" />
          </mxGeometry>
        </mxCell>
        <mxCell id="IH9IsD3jPgNmUaPM1PwI-13" style="edgeStyle=orthogonalEdgeStyle;rounded=0;orthogonalLoop=1;jettySize=auto;html=1;exitX=1;exitY=0.25;exitDx=0;exitDy=0;entryX=0;entryY=0.25;entryDx=0;entryDy=0;" edge="1" parent="1" source="IH9IsD3jPgNmUaPM1PwI-8" target="IH9IsD3jPgNmUaPM1PwI-11">
          <mxGeometry relative="1" as="geometry" />
        </mxCell>
        <mxCell id="IH9IsD3jPgNmUaPM1PwI-15" style="edgeStyle=orthogonalEdgeStyle;rounded=0;orthogonalLoop=1;jettySize=auto;html=1;exitX=0.75;exitY=1;exitDx=0;exitDy=0;entryX=0.75;entryY=0;entryDx=0;entryDy=0;" edge="1" parent="1" source="IH9IsD3jPgNmUaPM1PwI-8" target="IH9IsD3jPgNmUaPM1PwI-12">
          <mxGeometry relative="1" as="geometry" />
        </mxCell>
        <mxCell id="IH9IsD3jPgNmUaPM1PwI-8" value="AL" style="whiteSpace=wrap;html=1;aspect=fixed;" vertex="1" parent="1">
          <mxGeometry x="440" y="200" width="80" height="80" as="geometry" />
        </mxCell>
        <mxCell id="IH9IsD3jPgNmUaPM1PwI-14" style="edgeStyle=orthogonalEdgeStyle;rounded=0;orthogonalLoop=1;jettySize=auto;html=1;exitX=0;exitY=0.75;exitDx=0;exitDy=0;entryX=1;entryY=0.75;entryDx=0;entryDy=0;" edge="1" parent="1" source="IH9IsD3jPgNmUaPM1PwI-11" target="IH9IsD3jPgNmUaPM1PwI-8">
          <mxGeometry relative="1" as="geometry" />
        </mxCell>
        <mxCell id="IH9IsD3jPgNmUaPM1PwI-24" style="edgeStyle=orthogonalEdgeStyle;rounded=0;orthogonalLoop=1;jettySize=auto;html=1;exitX=1;exitY=0.25;exitDx=0;exitDy=0;entryX=0;entryY=0.25;entryDx=0;entryDy=0;" edge="1" parent="1" source="IH9IsD3jPgNmUaPM1PwI-11" target="IH9IsD3jPgNmUaPM1PwI-23">
          <mxGeometry relative="1" as="geometry" />
        </mxCell>
        <mxCell id="IH9IsD3jPgNmUaPM1PwI-27" style="edgeStyle=orthogonalEdgeStyle;rounded=0;orthogonalLoop=1;jettySize=auto;html=1;exitX=0.5;exitY=1;exitDx=0;exitDy=0;entryX=1;entryY=0.5;entryDx=0;entryDy=0;" edge="1" parent="1" source="IH9IsD3jPgNmUaPM1PwI-11" target="IH9IsD3jPgNmUaPM1PwI-12">
          <mxGeometry relative="1" as="geometry" />
        </mxCell>
        <mxCell id="IH9IsD3jPgNmUaPM1PwI-28" value="Repositories interfaces,&lt;br&gt;Factories" style="edgeLabel;html=1;align=center;verticalAlign=middle;resizable=0;points=[];" vertex="1" connectable="0" parent="IH9IsD3jPgNmUaPM1PwI-27">
          <mxGeometry x="-0.2123" y="-2" relative="1" as="geometry">
            <mxPoint as="offset" />
          </mxGeometry>
        </mxCell>
        <mxCell id="IH9IsD3jPgNmUaPM1PwI-11" value="Domain" style="whiteSpace=wrap;html=1;aspect=fixed;" vertex="1" parent="1">
          <mxGeometry x="600" y="200" width="80" height="80" as="geometry" />
        </mxCell>
        <mxCell id="IH9IsD3jPgNmUaPM1PwI-16" style="edgeStyle=orthogonalEdgeStyle;rounded=0;orthogonalLoop=1;jettySize=auto;html=1;exitX=0.25;exitY=0;exitDx=0;exitDy=0;entryX=0.25;entryY=1;entryDx=0;entryDy=0;" edge="1" parent="1" source="IH9IsD3jPgNmUaPM1PwI-12" target="IH9IsD3jPgNmUaPM1PwI-8">
          <mxGeometry relative="1" as="geometry" />
        </mxCell>
        <mxCell id="IH9IsD3jPgNmUaPM1PwI-12" value="DA" style="whiteSpace=wrap;html=1;aspect=fixed;" vertex="1" parent="1">
          <mxGeometry x="440" y="360" width="80" height="80" as="geometry" />
        </mxCell>
        <mxCell id="IH9IsD3jPgNmUaPM1PwI-17" value="Database" style="shape=cylinder3;whiteSpace=wrap;html=1;boundedLbl=1;backgroundOutline=1;size=15;" vertex="1" parent="1">
          <mxGeometry x="280" y="360" width="80" height="80" as="geometry" />
        </mxCell>
        <mxCell id="IH9IsD3jPgNmUaPM1PwI-18" style="edgeStyle=orthogonalEdgeStyle;rounded=0;orthogonalLoop=1;jettySize=auto;html=1;exitX=1;exitY=0;exitDx=0;exitDy=27.5;exitPerimeter=0;entryX=-0.014;entryY=0.342;entryDx=0;entryDy=0;entryPerimeter=0;strokeWidth=1;" edge="1" parent="1" source="IH9IsD3jPgNmUaPM1PwI-17" target="IH9IsD3jPgNmUaPM1PwI-12">
          <mxGeometry relative="1" as="geometry" />
        </mxCell>
        <mxCell id="IH9IsD3jPgNmUaPM1PwI-19" style="edgeStyle=orthogonalEdgeStyle;rounded=0;orthogonalLoop=1;jettySize=auto;html=1;exitX=0;exitY=0.75;exitDx=0;exitDy=0;entryX=0.992;entryY=0.741;entryDx=0;entryDy=0;entryPerimeter=0;spacing=-1;" edge="1" parent="1" source="IH9IsD3jPgNmUaPM1PwI-12" target="IH9IsD3jPgNmUaPM1PwI-17">
          <mxGeometry relative="1" as="geometry" />
        </mxCell>
        <mxCell id="IH9IsD3jPgNmUaPM1PwI-25" style="edgeStyle=orthogonalEdgeStyle;rounded=0;orthogonalLoop=1;jettySize=auto;html=1;exitX=0;exitY=0.75;exitDx=0;exitDy=0;entryX=1;entryY=0.75;entryDx=0;entryDy=0;" edge="1" parent="1" source="IH9IsD3jPgNmUaPM1PwI-23" target="IH9IsD3jPgNmUaPM1PwI-11">
          <mxGeometry relative="1" as="geometry" />
        </mxCell>
        <mxCell id="IH9IsD3jPgNmUaPM1PwI-23" value="Domain" style="swimlane;horizontal=0;whiteSpace=wrap;html=1;" vertex="1" parent="1">
          <mxGeometry x="760" y="200" width="120" height="80" as="geometry" />
        </mxCell>
        <mxCell id="IH9IsD3jPgNmUaPM1PwI-22" value="&lt;span style=&quot;color: rgb(0, 0, 0); font-family: Helvetica; font-size: 12px; font-style: normal; font-variant-ligatures: normal; font-variant-caps: normal; font-weight: 400; letter-spacing: normal; orphans: 2; text-align: center; text-indent: 0px; text-transform: none; widows: 2; word-spacing: 0px; -webkit-text-stroke-width: 0px; background-color: rgb(251, 251, 251); text-decoration-thickness: initial; text-decoration-style: initial; text-decoration-color: initial; float: none; display: inline !important;&quot;&gt;Factories, Repositories interfaces, Models&lt;/span&gt;" style="text;whiteSpace=wrap;html=1;" vertex="1" parent="IH9IsD3jPgNmUaPM1PwI-23">
          <mxGeometry x="40" y="5" width="70" height="70" as="geometry" />
        </mxCell>
      </root>
    </mxGraphModel>
  </diagram>
</mxfile>
